0
SECTION
2
HEADER
9
$INSUNITS
70
4
9
$ACADVER
1
AC1014
9
$HANDSEED
5
FFFF
0
ENDSEC
0
SECTION
2
TABLES
0
TABLE
2
VPORT
5
8
100
AcDbSymbolTable
0
ENDTAB
0
TABLE
2
LTYPE
5
5
100
AcDbSymbolTable
0
LTYPE
5
14
100
AcDbSymbolTableRecord
100
AcDbLinetypeTableRecord
2
BYBLOCK
70
0
0
LTYPE
5
15
100
AcDbSymbolTableRecord
100
AcDbLinetypeTableRecord
2
BYLAYER
70
0
0
ENDTAB
0
TABLE
2
LAYER
5
2
100
AcDbSymbolTable
70
2
0
LAYER
5
50
100
AcDbSymbolTableRecord
100
AcDbLayerTableRecord
2
0
70
0
6
CONTINUOUS
0
ENDTAB
0
TABLE
2
STYLE
5
3
100
AcDbSymbolTable
70
1
0
STYLE
5
11
100
AcDbSymbolTableRecord
100
AcDbTextStyleTableRecord
2
STANDARD
70
0
0
ENDTAB
0
TABLE
2
VIEW
5
6
100
AcDbSymbolTable
70
0
0
ENDTAB
0
TABLE
2
UCS
5
7
100
AcDbSymbolTable
70
0
0
ENDTAB
0
TABLE
2
APPID
5
9
100
AcDbSymbolTable
70
2
0
APPID
5
12
100
AcDbSymbolTableRecord
100
AcDbRegAppTableRecord
2
ACAD
70
0
0
ENDTAB
0
TABLE
2
DIMSTYLE
5
A
100
AcDbSymbolTable
70
1
0
ENDTAB
0
TABLE
2
BLOCK_RECORD
5
1
100
AcDbSymbolTable
70
1
0
BLOCK_RECORD
5
1F
100
AcDbSymbolTableRecord
100
AcDbBlockTableRecord
2
*MODEL_SPACE
0
BLOCK_RECORD
5
1B
100
AcDbSymbolTableRecord
100
AcDbBlockTableRecord
2
*PAPER_SPACE
0
ENDTAB
0
ENDSEC
0
SECTION
2
BLOCKS
0
BLOCK
5
20
100
AcDbEntity
100
AcDbBlockBegin
2
*MODEL_SPACE
0
ENDBLK
5
21
100
AcDbEntity
100
AcDbBlockEnd
0
BLOCK
5
1C
100
AcDbEntity
100
AcDbBlockBegin
2
*PAPER_SPACE
0
ENDBLK
5
1D
100
AcDbEntity
100
AcDbBlockEnd
0
ENDSEC
0
SECTION
2
ENTITIES
0
LWPOLYLINE
5
100
100
AcDbEntity
8
0
100
AcDbPolyline
90
56
70
1
43
0.0
10
-77.700000000000017
20
40.249999999999993
10
-77.700000000000017
20
39.049999999999997
42
-0.41421356237309465
10
-80.700000000000017
20
36.050000000000004
10
-80.900000000000034
20
36.049999999999997
42
0.41421356237312978
10
-81.200000000000031
20
35.750000000000007
10
-81.200000000000031
20
19.525000000000009
42
0.41421356237309825
10
-80.200000000000031
20
18.525000000000006
10
-25.050000000000008
20
18.525000000000006
42
-0.41421356237309309
10
-24.050000000000011
20
17.525000000000006
10
-24.050000000000008
20
15.524999999999995
42
0.41421356237309437
10
-23.050000000000015
20
14.524999999999997
10
23.050000000000015
20
14.524999999999997
42
0.41421356237309503
10
24.050000000000008
20
15.524999999999999
10
24.050000000000008
20
17.525000000000006
42
-0.41421356237309503
10
25.050000000000008
20
18.525000000000006
10
80.200000000000031
20
18.525000000000006
42
0.41421356237309825
10
81.200000000000031
20
19.525000000000009
10
81.200000000000031
20
35.75
42
0.41421356237313839
10
80.900000000000034
20
36.049999999999997
10
80.700000000000017
20
36.049999999999997
42
-0.41421356237309503
10
77.700000000000017
20
39.049999999999997
10
77.700000000000031
20
40.249999999999993
42
0.41421356237310375
10
77.40000000000002
20
40.549999999999997
10
76.400000000000006
20
40.549999999999997
42
-0.41421356237309503
10
75.400000000000006
20
41.549999999999997
10
75.400000000000006
20
47.575000000000017
42
-0.41421356237309503
10
76.400000000000006
20
48.575000000000017
10
89.725000000000037
20
48.575000000000024
42
-0.41421356237309764
10
90.725000000000037
20
47.575000000000017
10
90.725000000000037
20
28.14374999999999
42
0.41421356237309764
10
91.725000000000023
20
27.143749999999986
10
127.825
20
27.143749999999986
42
0.41421356237309631
10
128.82499999999999
20
28.143749999999986
10
128.82499999999999
20
105.58125000000001
42
0.41421356237309503
10
127.825
20
106.58125
10
15.525000000000002
20
106.58125
42
-0.41421356237309698
10
14.524999999999999
20
107.58125
10
14.524999999999997
20
111.58125
42
0.41421356237309437
10
13.524999999999995
20
112.58125
10
-13.524999999999995
20
112.58125
42
0.41421356237309437
10
-14.52499999999999
20
111.58125
10
-14.524999999999988
20
107.58125
42
-0.41421356237309825
10
-15.524999999999995
20
106.58125
10
-127.825
20
106.58125
42
0.41421356237309503
10
-128.82499999999999
20
105.58125000000001
10
-128.82499999999999
20
28.143749999999983
42
0.41421356237309503
10
-127.825
20
27.143749999999986
10
-91.725000000000023
20
27.14374999999999
42
0.41421356237309764
10
-90.725000000000037
20
28.14374999999999
10
-90.725000000000023
20
47.575000000000017
42
-0.41421356237309764
10
-89.725000000000037
20
48.575000000000017
10
-76.400000000000006
20
48.575000000000017
42
-0.41421356237309503
10
-75.400000000000006
20
47.575000000000017
10
-75.400000000000006
20
41.549999999999997
42
-0.41421356237309503
10
-76.400000000000006
20
40.549999999999997
10
-77.40000000000002
20
40.54999999999999
42
0.41421356237310375
0
CIRCLE
5
101
100
AcDbEntity
8
0
100
AcDbCircle
10
-74.800000000000026
20
40.850000000000001
30
0
40
0.30000000000000249
210
0
220
0
230
1
0
CIRCLE
5
102
100
AcDbEntity
8
0
100
AcDbCircle
10
-73.900000000000006
20
40.850000000000001
30
0
40
0.30000000000000249
210
0
220
0
230
1
0
CIRCLE
5
103
100
AcDbEntity
8
0
100
AcDbCircle
10
-71.200000000000017
20
40.850000000000001
30
0
40
0.30000000000000249
210
0
220
0
230
1
0
CIRCLE
5
104
100
AcDbEntity
8
0
100
AcDbCircle
10
-72.09999999999998
20
40.850000000000001
30
0
40
0.30000000000000249
210
0
220
0
230
1
0
CIRCLE
5
105
100
AcDbEntity
8
0
100
AcDbCircle
10
-73
20
40.850000000000001
30
0
40
0.30000000000000249
210
0
220
0
230
1
0
LWPOLYLINE
5
106
100
AcDbEntity
8
0
100
AcDbPolyline
90
8
70
1
43
0.0
10
-68.700000000000017
20
48.575000000000017
10
-35.70000000000001
20
48.575000000000017
42
-0.41421356237310025
10
-34.70000000000001
20
47.575000000000017
10
-34.70000000000001
20
41.549999999999997
42
-0.41421356237310025
10
-35.70000000000001
20
40.549999999999997
10
-68.700000000000017
20
40.549999999999997
42
-0.41421356237309503
10
-69.700000000000003
20
41.549999999999997
10
-69.700000000000003
20
47.575000000000017
42
-0.41421356237309503
0
CIRCLE
5
107
100
AcDbEntity
8
0
100
AcDbCircle
10
-74.800000000000026
20
48.275000000000013
30
0
40
0.30000000000000249
210
0
220
0
230
1
0
CIRCLE
5
108
100
AcDbEntity
8
0
100
AcDbCircle
10
-30.500000000000007
20
48.275000000000013
30
0
40
0.30000000000000249
210
0
220
0
230
1
0
CIRCLE
5
109
100
AcDbEntity
8
0
100
AcDbCircle
10
-31.400000000000009
20
48.275000000000013
30
0
40
0.30000000000000249
210
0
220
0
230
1
0
CIRCLE
5
110
100
AcDbEntity
8
0
100
AcDbCircle
10
-32.300000000000004
20
48.275000000000013
30
0
40
0.30000000000000249
210
0
220
0
230
1
0
CIRCLE
5
111
100
AcDbEntity
8
0
100
AcDbCircle
10
-33.200000000000003
20
48.275000000000013
30
0
40
0.30000000000000249
210
0
220
0
230
1
0
CIRCLE
5
112
100
AcDbEntity
8
0
100
AcDbCircle
10
-34.100000000000009
20
48.275000000000013
30
0
40
0.30000000000000249
210
0
220
0
230
1
0
CIRCLE
5
113
100
AcDbEntity
8
0
100
AcDbCircle
10
-29.600000000000005
20
40.850000000000001
30
0
40
0.29999999999999805
210
0
220
0
230
1
0
CIRCLE
5
114
100
AcDbEntity
8
0
100
AcDbCircle
10
-30.500000000000004
20
40.850000000000001
30
0
40
0.29999999999999805
210
0
220
0
230
1
0
CIRCLE
5
115
100
AcDbEntity
8
0
100
AcDbCircle
10
-31.400000000000002
20
40.850000000000001
30
0
40
0.29999999999999805
210
0
220
0
230
1
0
CIRCLE
5
116
100
AcDbEntity
8
0
100
AcDbCircle
10
-32.299999999999997
20
40.850000000000001
30
0
40
0.29999999999999805
210
0
220
0
230
1
0
CIRCLE
5
117
100
AcDbEntity
8
0
100
AcDbCircle
10
-33.200000000000003
20
40.850000000000001
30
0
40
0.29999999999999805
210
0
220
0
230
1
0
CIRCLE
5
118
100
AcDbEntity
8
0
100
AcDbCircle
10
-71.200000000000017
20
48.275000000000013
30
0
40
0.30000000000000249
210
0
220
0
230
1
0
CIRCLE
5
119
100
AcDbEntity
8
0
100
AcDbCircle
10
-70.299999999999997
20
40.850000000000001
30
0
40
0.30000000000000249
210
0
220
0
230
1
0
CIRCLE
5
120
100
AcDbEntity
8
0
100
AcDbCircle
10
-70.300000000000011
20
48.275000000000013
30
0
40
0.30000000000000249
210
0
220
0
230
1
0
CIRCLE
5
121
100
AcDbEntity
8
0
100
AcDbCircle
10
-34.100000000000001
20
40.850000000000001
30
0
40
0.29999999999999805
210
0
220
0
230
1
0
CIRCLE
5
122
100
AcDbEntity
8
0
100
AcDbCircle
10
-29.600000000000009
20
48.275000000000013
30
0
40
0.30000000000000249
210
0
220
0
230
1
0
CIRCLE
5
123
100
AcDbEntity
8
0
100
AcDbCircle
10
-72.100000000000023
20
48.275000000000013
30
0
40
0.30000000000000249
210
0
220
0
230
1
0
CIRCLE
5
124
100
AcDbEntity
8
0
100
AcDbCircle
10
-73.90000000000002
20
48.275000000000013
30
0
40
0.30000000000000249
210
0
220
0
230
1
0
CIRCLE
5
125
100
AcDbEntity
8
0
100
AcDbCircle
10
-73
20
48.275000000000013
30
0
40
0.30000000000000249
210
0
220
0
230
1
0
CIRCLE
5
126
100
AcDbEntity
8
0
100
AcDbCircle
10
73
20
48.275000000000013
30
0
40
0.30000000000000249
210
0
220
0
230
1
0
CIRCLE
5
127
100
AcDbEntity
8
0
100
AcDbCircle
10
73.90000000000002
20
48.275000000000013
30
0
40
0.30000000000000249
210
0
220
0
230
1
0
CIRCLE
5
128
100
AcDbEntity
8
0
100
AcDbCircle
10
72.100000000000023
20
48.275000000000013
30
0
40
0.30000000000000249
210
0
220
0
230
1
0
CIRCLE
5
129
100
AcDbEntity
8
0
100
AcDbCircle
10
29.600000000000009
20
48.275000000000013
30
0
40
0.30000000000000249
210
0
220
0
230
1
0
CIRCLE
5
130
100
AcDbEntity
8
0
100
AcDbCircle
10
34.100000000000001
20
40.850000000000001
30
0
40
0.29999999999999805
210
0
220
0
230
1
0
CIRCLE
5
131
100
AcDbEntity
8
0
100
AcDbCircle
10
70.300000000000011
20
48.275000000000013
30
0
40
0.30000000000000249
210
0
220
0
230
1
0
CIRCLE
5
132
100
AcDbEntity
8
0
100
AcDbCircle
10
70.299999999999997
20
40.850000000000001
30
0
40
0.30000000000000249
210
0
220
0
230
1
0
CIRCLE
5
133
100
AcDbEntity
8
0
100
AcDbCircle
10
71.200000000000017
20
48.275000000000013
30
0
40
0.30000000000000249
210
0
220
0
230
1
0
CIRCLE
5
134
100
AcDbEntity
8
0
100
AcDbCircle
10
33.200000000000003
20
40.850000000000001
30
0
40
0.29999999999999805
210
0
220
0
230
1
0
CIRCLE
5
135
100
AcDbEntity
8
0
100
AcDbCircle
10
32.299999999999997
20
40.850000000000001
30
0
40
0.29999999999999805
210
0
220
0
230
1
0
CIRCLE
5
136
100
AcDbEntity
8
0
100
AcDbCircle
10
31.400000000000002
20
40.850000000000001
30
0
40
0.29999999999999805
210
0
220
0
230
1
0
CIRCLE
5
137
100
AcDbEntity
8
0
100
AcDbCircle
10
30.500000000000004
20
40.850000000000001
30
0
40
0.29999999999999805
210
0
220
0
230
1
0
CIRCLE
5
138
100
AcDbEntity
8
0
100
AcDbCircle
10
29.600000000000005
20
40.850000000000001
30
0
40
0.29999999999999805
210
0
220
0
230
1
0
CIRCLE
5
139
100
AcDbEntity
8
0
100
AcDbCircle
10
34.100000000000009
20
48.275000000000013
30
0
40
0.30000000000000249
210
0
220
0
230
1
0
CIRCLE
5
140
100
AcDbEntity
8
0
100
AcDbCircle
10
33.200000000000003
20
48.275000000000013
30
0
40
0.30000000000000249
210
0
220
0
230
1
0
CIRCLE
5
141
100
AcDbEntity
8
0
100
AcDbCircle
10
32.300000000000004
20
48.275000000000013
30
0
40
0.30000000000000249
210
0
220
0
230
1
0
CIRCLE
5
142
100
AcDbEntity
8
0
100
AcDbCircle
10
31.400000000000009
20
48.275000000000013
30
0
40
0.30000000000000249
210
0
220
0
230
1
0
CIRCLE
5
143
100
AcDbEntity
8
0
100
AcDbCircle
10
30.500000000000007
20
48.275000000000013
30
0
40
0.30000000000000249
210
0
220
0
230
1
0
CIRCLE
5
144
100
AcDbEntity
8
0
100
AcDbCircle
10
74.800000000000026
20
48.275000000000013
30
0
40
0.30000000000000249
210
0
220
0
230
1
0
LWPOLYLINE
5
145
100
AcDbEntity
8
0
100
AcDbPolyline
90
8
70
1
43
0.0
10
35.70000000000001
20
48.575000000000017
10
68.700000000000017
20
48.575000000000017
42
-0.41421356237309503
10
69.700000000000003
20
47.575000000000017
10
69.700000000000003
20
41.549999999999997
42
-0.41421356237309503
10
68.700000000000017
20
40.549999999999997
10
35.70000000000001
20
40.549999999999997
42
-0.41421356237310025
10
34.70000000000001
20
41.549999999999997
10
34.70000000000001
20
47.575000000000017
42
-0.41421356237310025
0
CIRCLE
5
146
100
AcDbEntity
8
0
100
AcDbCircle
10
73
20
40.850000000000001
30
0
40
0.30000000000000249
210
0
220
0
230
1
0
CIRCLE
5
147
100
AcDbEntity
8
0
100
AcDbCircle
10
72.09999999999998
20
40.850000000000001
30
0
40
0.30000000000000249
210
0
220
0
230
1
0
CIRCLE
5
148
100
AcDbEntity
8
0
100
AcDbCircle
10
71.200000000000017
20
40.850000000000001
30
0
40
0.30000000000000249
210
0
220
0
230
1
0
CIRCLE
5
149
100
AcDbEntity
8
0
100
AcDbCircle
10
73.900000000000006
20
40.850000000000001
30
0
40
0.30000000000000249
210
0
220
0
230
1
0
CIRCLE
5
150
100
AcDbEntity
8
0
100
AcDbCircle
10
74.800000000000026
20
40.850000000000001
30
0
40
0.30000000000000249
210
0
220
0
230
1
0
LWPOLYLINE
5
151
100
AcDbEntity
8
0
100
AcDbPolyline
90
20
70
1
43
0.0
10
-27
20
40.549999999999997
10
-28
20
40.549999999999997
42
-0.41421356237309631
10
-29
20
41.549999999999997
10
-29
20
47.575000000000017
42
-0.41421356237310025
10
-28.000000000000004
20
48.575000000000017
10
28.000000000000004
20
48.575000000000017
42
-0.41421356237310025
10
29
20
47.575000000000017
10
29
20
41.549999999999997
42
-0.41421356237309631
10
28
20
40.549999999999997
10
27
20
40.549999999999997
42
0.41421356237309631
10
26.000000000000007
20
39.549999999999997
10
26
20
39.049999999999997
42
-0.99999999999999989
10
20.000000000000004
20
39.049999999999997
10
19.999999999999996
20
40.550000000000004
42
0.4142135623730957
10
19
20
41.550000000000004
10
-18.999999999999996
20
41.550000000000004
42
0.41421356237309698
10
-20
20
40.550000000000004
10
-20.000000000000004
20
39.049999999999997
42
-0.99999999999999989
10
-26
20
39.049999999999997
10
-26.000000000000007
20
39.549999999999997
42
0.41421356237309631
0
LINE
5
152
100
AcDbEntity
8
0
100
AcDbLine
10
0
20
0
30
0
11
0
21
0.49681698301776045
31
0
0
LINE
5
153
100
AcDbEntity
8
0
100
AcDbLine
10
0
20
0.49681698301776045
30
0
11
0
21
26.643233896048763
31
0
0
ENDSEC
0
SECTION
2
OBJECTS
0
DICTIONARY
5
C
100
AcDbDictionary
3
ACAD_GROUP
350
D
3
ACAD_MLINESTYLE
350
17
0
DICTIONARY
5
D
100
AcDbDictionary
0
DICTIONARY
5
1A
330
C
100
AcDbDictionary
0
DICTIONARY
5
17
100
AcDbDictionary
0
ENDSEC
0
EOF
